<svg width="24" height="24" viewBox="0 0 24 24" fill="none" xmlns="http://www.w3.org/2000/svg">
<g id="Exercicio Logo">
<g id="exercise">
<mask id="mask0_275_727" style="mask-type:alpha" maskUnits="userSpaceOnUse" x="0" y="0" width="24" height="24">
<rect id="Bounding box" x="0.5" y="0.5" width="23" height="23" fill="#D9D9D9" stroke="black"/>
</mask>
<g mask="url(#mask0_275_727)">
<path id="exercise_2" d="M4.73145 16.0371L3.96582 16.7783L3.95703 16.7881L3.96582 16.7969L7.19141 20.0215L7.2002 20.0303L7.20898 20.0215L7.94922 19.2549L9.35742 20.6631L8.61621 21.4043C8.23542 21.785 7.76777 21.9755 7.21289 21.9756C6.72729 21.9756 6.30827 21.8295 5.95605 21.5381L5.80859 21.4043L2.58398 18.1787C2.20312 17.7978 2.01272 17.3304 2.0127 16.7754C2.0127 16.2896 2.15851 15.8709 2.4502 15.5186L2.58398 15.3721L3.3252 14.6309L4.73145 16.0371ZM12.4121 2.02539C12.8978 2.02539 13.3167 2.17131 13.6689 2.46289L13.8164 2.59668L19.207 7.9873V7.98828L19.2158 7.99707L20.6162 9.39648L21.3916 10.1719C21.7723 10.5527 21.9629 11.0203 21.9629 11.5752C21.9629 12.0609 21.8169 12.4798 21.5254 12.832L21.3916 12.9785L19.9658 14.4043C19.585 14.7849 19.1131 14.9756 18.5498 14.9756C18.057 14.9755 17.6343 14.8295 17.2812 14.5381L17.1338 14.4043L15.584 12.8291L15.5752 12.8203L12.8076 15.5879L14.3916 17.1719C14.7723 17.5527 14.9629 18.0203 14.9629 18.5752C14.9629 19.0609 14.8169 19.4798 14.5254 19.832L14.3916 19.9785L12.9658 21.4043C12.585 21.7849 12.1131 21.9756 11.5498 21.9756C11.057 21.9755 10.6343 21.8295 10.2812 21.5381L10.1338 21.4043L8.70801 19.9785L7.95898 19.2285L7.9502 19.2197H7.94922L2.58398 13.8535C2.2032 13.4727 2.0127 13.001 2.0127 12.4375C2.01275 11.9445 2.15865 11.522 2.4502 11.1689L2.58398 11.0215L4.00879 9.59668C4.38961 9.21586 4.85715 9.02548 5.41211 9.02539C5.89781 9.02539 6.31669 9.17131 6.66895 9.46289L6.81641 9.59668L8.40039 11.1807L11.168 8.41309L11.1592 8.4043L9.58398 6.85352C9.2032 6.47267 9.0127 6.00095 9.0127 5.4375C9.01275 4.94455 9.15865 4.52204 9.4502 4.16895L9.58398 4.02148L11.0088 2.59668C11.3896 2.21586 11.8572 2.02548 12.4121 2.02539ZM5.41602 11.0039L3.96582 12.4287L3.95703 12.4375L11.5498 20.0303L11.5586 20.0215L12.9844 18.5713L12.9922 18.5625L5.4248 10.9951L5.41602 11.0039ZM12.541 9.8291L9.81641 12.5791L9.80762 12.5879L11.4004 14.1807L11.4092 14.1719L14.1592 11.4463L14.168 11.4375L14.1592 11.4287L12.5586 9.8291L12.5498 9.82031L12.541 9.8291ZM12.3916 4.00391L10.9658 5.42871L10.957 5.4375L18.5498 13.0303L19.9834 11.5967L19.9932 11.5879L19.9834 11.5791L12.4092 4.00391L12.4004 3.99512L12.3916 4.00391ZM16.75 2.0127C17.2433 2.01998 17.6663 2.17011 18.0195 2.46289L18.166 2.59668L21.3916 5.82129C21.7725 6.20219 21.9629 6.67049 21.9629 7.22559C21.9628 7.71123 21.817 8.13021 21.5254 8.48242L21.3916 8.62891L20.625 9.37012L19.2422 7.9873L19.9844 7.22168L19.9922 7.21289L19.9834 7.2041L16.7842 4.00391L16.7754 3.99512L16.7666 4.00391L16 4.74512L14.5918 3.33691L15.334 2.57129C15.6672 2.23817 16.07 2.05383 16.543 2.01855L16.75 2.0127Z" fill="#1C1B1F" fill-opacity="0.56" stroke="black" stroke-width="0.025"/>
</g>
</g>
</g>
</svg>
