<svg width="35" height="41" viewBox="0 0 35 41" fill="none" xmlns="http://www.w3.org/2000/svg">
<path d="M5.53583 5.48967C8.72526 2.34844 13.0234 0.589572 17.5 0.593757C21.9835 0.593757 26.2873 2.35163 29.4642 5.48967C32.3409 8.32759 33.8395 11.5044 34.2355 14.8038C34.6296 18.0745 33.9252 21.3575 32.5818 24.4363C29.9154 30.5613 24.6152 36.131 19.5315 39.755C18.9389 40.1789 18.2286 40.4068 17.5 40.4068C16.7714 40.4068 16.0611 40.1789 15.4685 39.755C10.3848 36.131 5.08463 30.5593 2.41617 24.4363C1.07479 21.3575 0.372459 18.0745 0.764459 14.8017C1.16054 11.5044 2.65913 8.32963 5.53583 5.48967ZM11.8854 16.4167C11.8854 14.9276 12.477 13.4995 13.5299 12.4466C14.5828 11.3936 16.0109 10.8021 17.5 10.8021C18.9891 10.8021 20.4172 11.3936 21.4701 12.4466C22.5231 13.4995 23.1146 14.9276 23.1146 16.4167C23.1146 17.9058 22.5231 19.3338 21.4701 20.3868C20.4172 21.4397 18.9891 22.0313 17.5 22.0313C16.0109 22.0313 14.5828 21.4397 13.5299 20.3868C12.477 19.3338 11.8854 17.9058 11.8854 16.4167Z" fill="#002EC4"/>
<path d="M10.7314 21.0371L9.96582 21.7783L9.95703 21.7881L9.96582 21.7969L13.1914 25.0215L13.2002 25.0303L13.209 25.0215L13.9492 24.2549L15.3574 25.6631L14.6162 26.4043C14.2354 26.785 13.7678 26.9755 13.2129 26.9756C12.7273 26.9756 12.3083 26.8295 11.9561 26.5381L11.8086 26.4043L8.58398 23.1787C8.20312 22.7978 8.01272 22.3304 8.0127 21.7754C8.0127 21.2896 8.15851 20.8709 8.4502 20.5186L8.58398 20.3721L9.3252 19.6309L10.7314 21.0371ZM18.4121 7.02539C18.8978 7.02539 19.3167 7.17131 19.6689 7.46289L19.8164 7.59668L25.207 12.9873V12.9883L25.2158 12.9971L26.6162 14.3965L27.3916 15.1719C27.7723 15.5527 27.9629 16.0203 27.9629 16.5752C27.9629 17.0609 27.8169 17.4798 27.5254 17.832L27.3916 17.9785L25.9658 19.4043C25.585 19.7849 25.1131 19.9756 24.5498 19.9756C24.057 19.9755 23.6343 19.8295 23.2812 19.5381L23.1338 19.4043L21.584 17.8291L21.5752 17.8203L18.8076 20.5879L20.3916 22.1719C20.7723 22.5527 20.9629 23.0203 20.9629 23.5752C20.9629 24.0609 20.8169 24.4798 20.5254 24.832L20.3916 24.9785L18.9658 26.4043C18.585 26.7849 18.1131 26.9756 17.5498 26.9756C17.057 26.9755 16.6343 26.8295 16.2812 26.5381L16.1338 26.4043L14.708 24.9785L13.959 24.2285L13.9502 24.2197H13.9492L8.58398 18.8535C8.2032 18.4727 8.0127 18.001 8.0127 17.4375C8.01275 16.9445 8.15865 16.522 8.4502 16.1689L8.58398 16.0215L10.0088 14.5967C10.3896 14.2159 10.8572 14.0255 11.4121 14.0254C11.8978 14.0254 12.3167 14.1713 12.6689 14.4629L12.8164 14.5967L14.4004 16.1807L17.168 13.4131L17.1592 13.4043L15.584 11.8535C15.2032 11.4727 15.0127 11.001 15.0127 10.4375C15.0127 9.94455 15.1586 9.52204 15.4502 9.16895L15.584 9.02148L17.0088 7.59668C17.3896 7.21586 17.8572 7.02548 18.4121 7.02539ZM11.416 16.0039L9.96582 17.4287L9.95703 17.4375L17.5498 25.0303L17.5586 25.0215L18.9844 23.5713L18.9922 23.5625L11.4248 15.9951L11.416 16.0039ZM18.541 14.8291L15.8164 17.5791L15.8076 17.5879L17.4004 19.1807L17.4092 19.1719L20.1592 16.4463L20.168 16.4375L20.1592 16.4287L18.5586 14.8291L18.5498 14.8203L18.541 14.8291ZM18.3916 9.00391L16.9658 10.4287L16.957 10.4375L24.5498 18.0303L25.9834 16.5967L25.9932 16.5879L25.9834 16.5791L18.4092 9.00391L18.4004 8.99512L18.3916 9.00391ZM22.75 7.0127C23.2433 7.01998 23.6663 7.17011 24.0195 7.46289L24.166 7.59668L27.3916 10.8213C27.7725 11.2022 27.9629 11.6705 27.9629 12.2256C27.9628 12.7112 27.817 13.1302 27.5254 13.4824L27.3916 13.6289L26.625 14.3701L25.2422 12.9873L25.9844 12.2217L25.9922 12.2129L25.9834 12.2041L22.7842 9.00391L22.7754 8.99512L22.7666 9.00391L22 9.74512L20.5918 8.33691L21.334 7.57129C21.7148 7.19062 22.1867 7.00441 22.75 7.0127Z" fill="white" stroke="#F2F2F2" stroke-width="0.025"/>
</svg>
