<svg width="157" height="36" viewBox="0 0 157 36" fill="none" xmlns="http://www.w3.org/2000/svg">
<rect width="157" height="36" rx="17" fill="#FF0000"/>
<path d="M22.8102 15.66C22.8102 16.5987 22.5902 17.4567 22.1502 18.234C21.7249 18.9967 21.0722 19.6127 20.1922 20.082C19.3269 20.5367 18.2636 20.764 17.0022 20.764H14.8682V26H10.5562V10.49H17.0022C18.2489 10.49 19.3049 10.71 20.1702 11.15C21.0502 11.59 21.7102 12.1987 22.1502 12.976C22.5902 13.7533 22.8102 14.648 22.8102 15.66ZM16.5842 17.332C17.8016 17.332 18.4102 16.7747 18.4102 15.66C18.4102 14.5307 17.8016 13.966 16.5842 13.966H14.8682V17.332H16.5842ZM28.8545 15.836C29.3385 15.132 29.9252 14.5747 30.6145 14.164C31.3039 13.7533 32.0445 13.548 32.8365 13.548V18.146H31.6265C30.6879 18.146 29.9912 18.3293 29.5365 18.696C29.0819 19.0627 28.8545 19.7007 28.8545 20.61V26H24.5425V13.658H28.8545V15.836ZM40.1244 26.154C38.8924 26.154 37.7851 25.8973 36.8024 25.384C35.8344 24.8707 35.0717 24.1373 34.5144 23.184C33.9571 22.2307 33.6784 21.1087 33.6784 19.818C33.6784 18.542 33.9571 17.4273 34.5144 16.474C35.0864 15.5207 35.8564 14.7873 36.8244 14.274C37.8071 13.7607 38.9144 13.504 40.1464 13.504C41.3784 13.504 42.4784 13.7607 43.4464 14.274C44.4291 14.7873 45.1991 15.5207 45.7564 16.474C46.3284 17.4273 46.6144 18.542 46.6144 19.818C46.6144 21.094 46.3284 22.216 45.7564 23.184C45.1991 24.1373 44.4291 24.8707 43.4464 25.384C42.4637 25.8973 41.3564 26.154 40.1244 26.154ZM40.1244 22.414C40.7257 22.414 41.2244 22.194 41.6204 21.754C42.0311 21.2993 42.2364 20.654 42.2364 19.818C42.2364 18.982 42.0311 18.344 41.6204 17.904C41.2244 17.464 40.7331 17.244 40.1464 17.244C39.5597 17.244 39.0684 17.464 38.6724 17.904C38.2764 18.344 38.0784 18.982 38.0784 19.818C38.0784 20.6687 38.2691 21.314 38.6504 21.754C39.0317 22.194 39.5231 22.414 40.1244 22.414ZM55.0347 17.244H53.0987V26H48.7647V17.244H47.4227V13.658H48.7647V13.548C48.7647 11.964 49.2267 10.754 50.1507 9.918C51.0894 9.06733 52.4314 8.642 54.1767 8.642C54.5287 8.642 54.8001 8.64933 54.9907 8.664V12.338C54.8734 12.3233 54.7121 12.316 54.5067 12.316C54.0374 12.316 53.6927 12.426 53.4727 12.646C53.2527 12.8513 53.1281 13.1887 53.0987 13.658H55.0347V17.244ZM58.7538 12.514C57.9911 12.514 57.3751 12.3087 56.9058 11.898C56.4511 11.4727 56.2238 10.9447 56.2238 10.314C56.2238 9.66867 56.4511 9.13333 56.9058 8.708C57.3751 8.28267 57.9911 8.07 58.7538 8.07C59.5018 8.07 60.1031 8.28267 60.5578 8.708C61.0271 9.13333 61.2618 9.66867 61.2618 10.314C61.2618 10.9447 61.0271 11.4727 60.5578 11.898C60.1031 12.3087 59.5018 12.514 58.7538 12.514ZM60.8878 13.658V26H56.5758V13.658H60.8878ZM68.6013 26.154C67.4867 26.154 66.4893 25.9707 65.6093 25.604C64.744 25.2227 64.0547 24.7093 63.5413 24.064C63.0427 23.404 62.764 22.6633 62.7053 21.842H66.8853C66.944 22.238 67.1273 22.546 67.4353 22.766C67.7433 22.986 68.1247 23.096 68.5793 23.096C68.9313 23.096 69.21 23.0227 69.4153 22.876C69.6207 22.7293 69.7233 22.5387 69.7233 22.304C69.7233 21.996 69.5547 21.7687 69.2173 21.622C68.88 21.4753 68.3227 21.314 67.5453 21.138C66.6653 20.962 65.932 20.764 65.3453 20.544C64.7587 20.324 64.2453 19.9647 63.8053 19.466C63.38 18.9673 63.1673 18.2927 63.1673 17.442C63.1673 16.7087 63.3653 16.0487 63.7613 15.462C64.1573 14.8607 64.7367 14.384 65.4993 14.032C66.2767 13.68 67.208 13.504 68.2933 13.504C69.9067 13.504 71.1753 13.9 72.0993 14.692C73.0233 15.484 73.5587 16.5253 73.7053 17.816H69.8113C69.738 17.42 69.562 17.1193 69.2833 16.914C69.0193 16.694 68.66 16.584 68.2053 16.584C67.8533 16.584 67.582 16.65 67.3913 16.782C67.2153 16.914 67.1273 17.0973 67.1273 17.332C67.1273 17.6253 67.296 17.8527 67.6333 18.014C67.9707 18.1607 68.5133 18.3147 69.2613 18.476C70.156 18.6667 70.8967 18.8793 71.4833 19.114C72.0847 19.3487 72.6053 19.73 73.0453 20.258C73.5 20.7713 73.7273 21.4753 73.7273 22.37C73.7273 23.0887 73.5147 23.734 73.0893 24.306C72.6787 24.878 72.0847 25.3327 71.3073 25.67C70.5447 25.9927 69.6427 26.154 68.6013 26.154ZM81.1052 26.154C79.9906 26.154 78.9932 25.9707 78.1132 25.604C77.2479 25.2227 76.5586 24.7093 76.0452 24.064C75.5466 23.404 75.2679 22.6633 75.2092 21.842H79.3892C79.4479 22.238 79.6312 22.546 79.9392 22.766C80.2472 22.986 80.6286 23.096 81.0832 23.096C81.4352 23.096 81.7139 23.0227 81.9192 22.876C82.1246 22.7293 82.2272 22.5387 82.2272 22.304C82.2272 21.996 82.0586 21.7687 81.7212 21.622C81.3839 21.4753 80.8266 21.314 80.0492 21.138C79.1692 20.962 78.4359 20.764 77.8492 20.544C77.2626 20.324 76.7492 19.9647 76.3092 19.466C75.8839 18.9673 75.6712 18.2927 75.6712 17.442C75.6712 16.7087 75.8692 16.0487 76.2652 15.462C76.6612 14.8607 77.2406 14.384 78.0032 14.032C78.7806 13.68 79.7119 13.504 80.7972 13.504C82.4106 13.504 83.6792 13.9 84.6032 14.692C85.5272 15.484 86.0626 16.5253 86.2092 17.816H82.3152C82.2419 17.42 82.0659 17.1193 81.7872 16.914C81.5232 16.694 81.1639 16.584 80.7092 16.584C80.3572 16.584 80.0859 16.65 79.8952 16.782C79.7192 16.914 79.6312 17.0973 79.6312 17.332C79.6312 17.6253 79.7999 17.8527 80.1372 18.014C80.4746 18.1607 81.0172 18.3147 81.7652 18.476C82.6599 18.6667 83.4006 18.8793 83.9872 19.114C84.5886 19.3487 85.1092 19.73 85.5492 20.258C86.0039 20.7713 86.2312 21.4753 86.2312 22.37C86.2312 23.0887 86.0186 23.734 85.5932 24.306C85.1826 24.878 84.5886 25.3327 83.8112 25.67C83.0486 25.9927 82.1466 26.154 81.1052 26.154ZM90.5291 12.514C89.7665 12.514 89.1505 12.3087 88.6811 11.898C88.2265 11.4727 87.9991 10.9447 87.9991 10.314C87.9991 9.66867 88.2265 9.13333 88.6811 8.708C89.1505 8.28267 89.7665 8.07 90.5291 8.07C91.2771 8.07 91.8785 8.28267 92.3331 8.708C92.8025 9.13333 93.0371 9.66867 93.0371 10.314C93.0371 10.9447 92.8025 11.4727 92.3331 11.898C91.8785 12.3087 91.2771 12.514 90.5291 12.514ZM92.6631 13.658V26H88.3511V13.658H92.6631ZM100.861 26.154C99.6287 26.154 98.5214 25.8973 97.5387 25.384C96.5707 24.8707 95.8081 24.1373 95.2507 23.184C94.6934 22.2307 94.4147 21.1087 94.4147 19.818C94.4147 18.542 94.6934 17.4273 95.2507 16.474C95.8227 15.5207 96.5927 14.7873 97.5607 14.274C98.5434 13.7607 99.6507 13.504 100.883 13.504C102.115 13.504 103.215 13.7607 104.183 14.274C105.165 14.7873 105.935 15.5207 106.493 16.474C107.065 17.4273 107.351 18.542 107.351 19.818C107.351 21.094 107.065 22.216 106.493 23.184C105.935 24.1373 105.165 24.8707 104.183 25.384C103.2 25.8973 102.093 26.154 100.861 26.154ZM100.861 22.414C101.462 22.414 101.961 22.194 102.357 21.754C102.767 21.2993 102.973 20.654 102.973 19.818C102.973 18.982 102.767 18.344 102.357 17.904C101.961 17.464 101.469 17.244 100.883 17.244C100.296 17.244 99.8047 17.464 99.4087 17.904C99.0127 18.344 98.8147 18.982 98.8147 19.818C98.8147 20.6687 99.0054 21.314 99.3867 21.754C99.7681 22.194 100.259 22.414 100.861 22.414ZM117.179 13.548C118.602 13.548 119.731 14.0247 120.567 14.978C121.403 15.9167 121.821 17.1927 121.821 18.806V26H117.509V19.378C117.509 18.674 117.326 18.124 116.959 17.728C116.592 17.3173 116.101 17.112 115.485 17.112C114.84 17.112 114.334 17.3173 113.967 17.728C113.6 18.124 113.417 18.674 113.417 19.378V26H109.105V13.658H113.417V15.418C113.798 14.8607 114.312 14.4133 114.957 14.076C115.602 13.724 116.343 13.548 117.179 13.548ZM123.483 19.818C123.483 18.542 123.71 17.4273 124.165 16.474C124.634 15.5207 125.265 14.7873 126.057 14.274C126.864 13.7607 127.758 13.504 128.741 13.504C129.592 13.504 130.325 13.6727 130.941 14.01C131.557 14.3473 132.034 14.802 132.371 15.374V13.658H136.683V26H132.371V24.284C132.034 24.856 131.55 25.3107 130.919 25.648C130.303 25.9853 129.577 26.154 128.741 26.154C127.758 26.154 126.864 25.8973 126.057 25.384C125.265 24.8707 124.634 24.1373 124.165 23.184C123.71 22.216 123.483 21.094 123.483 19.818ZM132.371 19.818C132.371 19.026 132.151 18.4027 131.711 17.948C131.286 17.4933 130.758 17.266 130.127 17.266C129.482 17.266 128.946 17.4933 128.521 17.948C128.096 18.388 127.883 19.0113 127.883 19.818C127.883 20.61 128.096 21.2407 128.521 21.71C128.946 22.1647 129.482 22.392 130.127 22.392C130.758 22.392 131.286 22.1647 131.711 21.71C132.151 21.2553 132.371 20.6247 132.371 19.818ZM143.452 9.72V26H139.14V9.72H143.452Z" fill="white"/>
</svg>
